<?xml version="1.0" encoding="UTF-8"?>
<!DOCTYPE svg PUBLIC "-//W3C//DTD SVG 1.1//EN" "http://www.w3.org/Graphics/SVG/1.1/DTD/svg11.dtd">
<svg xmlns="http://www.w3.org/2000/svg" version="1.1" width="1079px" height="1079px" style="shape-rendering:geometricPrecision; text-rendering:geometricPrecision; image-rendering:optimizeQuality; fill-rule:evenodd; clip-rule:evenodd" xmlns:xlink="http://www.w3.org/1999/xlink">
<g><path style="opacity:1" fill="#000000" d="M -0.5,-0.5 C 359.167,-0.5 718.833,-0.5 1078.5,-0.5C 1078.5,359.167 1078.5,718.833 1078.5,1078.5C 718.833,1078.5 359.167,1078.5 -0.5,1078.5C -0.5,718.833 -0.5,359.167 -0.5,-0.5 Z"/></g>
<g><path style="opacity:1" fill="#f9f9f9" d="M 514.5,32.5 C 653.471,28.9803 775.138,72.4803 879.5,163C 979.294,256.768 1034.46,372.268 1045,509.5C 1049.86,649.929 1006.53,772.929 915,878.5C 805.264,993.92 670.43,1049.09 510.5,1044C 373.265,1033.46 257.765,978.292 164,878.5C 64.3075,762.734 21.9741,628.4 37,475.5C 54.6981,351.924 108.865,247.757 199.5,163C 289.591,84.12 394.591,40.62 514.5,32.5 Z"/></g>
<g><path style="opacity:1" fill="#262626" d="M 514.5,45.5 C 651.036,42.5001 770.369,85.6667 872.5,175C 963.698,261.232 1016.2,367.066 1030,492.5C 1040.22,636.922 997.891,763.255 903,871.5C 803.254,975.516 680.92,1028.85 536,1031.5C 393.718,1027.22 273.718,973.892 176,871.5C 78.5665,759.881 36.5665,629.881 50,481.5C 69.1929,341.554 134.36,228.72 245.5,143C 325.819,85.0571 415.486,52.5571 514.5,45.5 Z"/></g>
<g><path style="opacity:1" fill="#fdfdfd" d="M 511.5,284.5 C 609.078,283.687 672.578,329.687 702,422.5C 707.825,443.453 711.492,464.786 713,486.5C 713.333,519.167 713.667,551.833 714,584.5C 752.588,534.014 782.922,478.68 805,418.5C 813.812,394.066 821.812,369.399 829,344.5C 833.14,339.789 838.306,338.289 844.5,340C 849.473,341.806 852.473,345.306 853.5,350.5C 829.737,450.355 785.571,539.688 721,618.5C 717.327,622.847 714.994,627.847 714,633.5C 712.636,664.014 714.303,694.347 719,724.5C 727.219,771.852 750.052,780.352 787.5,750C 790.685,747.116 793.518,743.949 796,740.5C 803.748,728.836 810.582,716.669 816.5,704C 824.582,699.823 831.749,700.989 838,707.5C 838.826,712.589 838.492,717.589 837,722.5C 819.84,765.008 788.507,788.341 743,792.5C 711.365,791.017 686.031,777.684 667,752.5C 655.86,735.885 647.694,717.885 642.5,698.5C 592.695,740.238 536.028,769.071 472.5,785C 442.465,791.693 412.132,793.693 381.5,791C 296.982,776.817 246.149,727.651 229,643.5C 221.362,596.241 226.029,550.241 243,505.5C 277.786,416.385 337.952,350.551 423.5,308C 451.673,295.323 481.006,287.49 511.5,284.5 Z"/></g>
<g><path style="opacity:1" fill="#262626" d="M 513.5,309.5 C 557.135,306.06 589.302,323.394 610,361.5C 623.947,391.953 631.947,423.953 634,457.5C 634.869,470.489 635.536,483.489 636,496.5C 636.181,554.194 636.848,611.86 638,669.5C 600.305,703.116 557.805,729.282 510.5,748C 473.063,762.028 434.396,768.362 394.5,767C 360.029,762.186 335.529,744.019 321,712.5C 311.896,690.413 307.729,667.413 308.5,643.5C 313.723,567.606 332.557,495.273 365,426.5C 381.385,397.772 401.885,372.272 426.5,350C 451.764,328.367 480.764,314.867 513.5,309.5 Z"/></g>
</svg>
